<svg width="478" height="307" viewBox="0 0 478 307" fill="none" xmlns="http://www.w3.org/2000/svg">
<path d="M56.134 43.9448C61.5729 42.9858 66.632 46.7358 69.1104 51.6712C75.8245 65.0425 90.8397 73.0132 106.468 70.2575C122.096 67.5018 133.48 54.8763 135.216 40.0151C135.856 34.5296 139.328 29.2755 144.767 28.3165L191.053 20.155C196.492 19.196 201.678 22.8277 202.637 28.2666L210.139 70.8105C209.48 70.7936 208.81 70.8416 208.135 70.9605C202.697 71.9195 199.065 77.1062 200.024 82.545C200.983 87.984 206.17 91.6157 211.608 90.6566C212.283 90.5377 212.929 90.3527 213.542 90.1114L251.259 304.013C252.218 309.452 248.586 314.638 243.147 315.597L61.9425 347.549C56.5036 348.508 51.317 344.876 50.358 339.437L12.6414 125.536C13.3003 125.553 13.9707 125.505 14.645 125.387C20.0839 124.428 23.7155 119.241 22.7566 113.802C21.7975 108.363 16.611 104.731 11.172 105.69C10.4978 105.809 9.85148 105.993 9.23812 106.235L1.73648 63.6909C0.777455 58.2519 4.40914 53.0653 9.84808 52.1063L56.134 43.9448ZM35.7932 101.349C30.3544 102.308 26.7225 107.495 27.6816 112.934C28.6406 118.372 33.8273 122.004 39.2661 121.045C44.705 120.086 48.3367 114.9 47.3777 109.461C46.4187 104.022 41.2321 100.39 35.7932 101.349ZM60.4124 97.008C54.9736 97.9672 51.3418 103.154 52.3008 108.593C53.26 114.031 58.4466 117.663 63.8854 116.704C69.3242 115.745 72.9558 110.558 71.997 105.12C71.0379 99.6807 65.8513 96.049 60.4124 97.008ZM85.0335 92.6667C79.5946 93.6257 75.9629 98.8123 76.922 104.251C77.881 109.69 83.0676 113.322 88.5065 112.363C93.9455 111.404 97.5771 106.217 96.6181 100.778C95.6591 95.3393 90.4725 91.7076 85.0335 92.6667ZM109.655 88.3253C104.216 89.2843 100.584 94.471 101.543 99.9099C102.502 105.349 107.689 108.98 113.128 108.021C118.567 107.062 122.198 101.876 121.239 96.4369C120.28 90.9981 115.094 87.3663 109.655 88.3253ZM134.274 83.9843C128.835 84.9433 125.203 90.1299 126.162 95.5688C127.121 101.008 132.308 104.639 137.747 103.68C143.186 102.721 146.818 97.5348 145.858 92.0959C144.899 86.6569 139.713 83.0252 134.274 83.9843ZM158.895 79.6429C153.456 80.6019 149.824 85.7885 150.783 91.2274C151.743 96.6664 156.929 100.298 162.368 99.339C167.807 98.3799 171.439 93.1934 170.48 87.7545C169.521 82.3156 164.334 78.6839 158.895 79.6429ZM183.514 75.3019C178.075 76.2609 174.444 81.4475 175.403 86.8864C176.362 92.3254 181.548 95.957 186.987 94.998C192.426 94.0389 196.058 88.8523 195.099 83.4135C194.14 77.9747 188.953 74.343 183.514 75.3019Z" fill="#FC2A75"/>
<path d="M195.617 103.631C201.056 102.672 206.242 106.304 207.201 111.743L243.146 315.598L238.222 316.466L202.581 114.335C201.83 110.074 196.812 107.398 191.373 108.357L39.7125 135.099C34.2736 136.058 30.4735 140.289 31.2248 144.55L66.8659 346.681L61.9419 347.549L25.9967 143.694C25.0377 138.255 28.6694 133.068 34.1083 132.109L195.617 103.631Z" fill="#F8F8FA"/>
<path d="M107.792 160.066L130.167 156.121L128.611 147.297L133.811 146.38L138.048 170.41L132.848 171.326L131.292 162.503L108.917 166.448L107.792 160.066ZM111.079 178.705L138.653 173.843L139.779 180.225L112.204 185.087L111.079 178.705ZM115.212 204.911C114.837 202.783 114.829 200.741 115.187 198.782C115.577 196.845 116.297 195.093 117.348 193.527C118.398 191.961 119.723 190.644 121.322 189.577C122.926 188.536 124.765 187.832 126.839 187.467C128.914 187.101 130.883 187.133 132.746 187.562C134.613 188.018 136.309 188.803 137.832 189.915C139.359 191.054 140.624 192.469 141.627 194.16C142.655 195.848 143.359 197.768 143.739 199.921C144.16 202.311 144.12 204.539 143.618 206.604C143.146 208.691 142.225 210.532 140.855 212.127L136.351 208.697C137.261 207.562 137.876 206.371 138.198 205.122C138.546 203.87 138.599 202.56 138.358 201.195C138.131 199.908 137.713 198.763 137.103 197.761C136.493 196.758 135.725 195.932 134.798 195.283C133.871 194.634 132.83 194.182 131.674 193.925C130.524 193.695 129.292 193.695 127.979 193.927C126.666 194.158 125.508 194.579 124.505 195.189C123.507 195.826 122.684 196.607 122.035 197.534C121.386 198.461 120.946 199.499 120.716 200.65C120.485 201.801 120.484 203.02 120.711 204.307C120.951 205.672 121.436 206.886 122.165 207.949C122.921 209.008 123.933 209.912 125.203 210.663L122.143 215.427C120.31 214.396 118.802 212.983 117.619 211.188C116.44 209.419 115.638 207.327 115.212 204.911ZM125.762 225.122L133.066 223.468L149.298 234.213L150.548 241.303L135.648 231.664L131.241 228.786L125.762 225.122ZM118.452 220.521L146.027 215.659L147.145 222.001L119.57 226.863L118.452 220.521ZM121.779 239.39L132.064 227.463L137.331 230.84L123.092 246.835L121.779 239.39ZM141.094 252.647L143.435 265.922L138.472 266.797L136.131 253.522L141.094 252.647ZM129.833 255.12L132.479 270.128L127.358 271.031L123.594 249.681L151.168 244.819L154.843 265.657L149.722 266.56L147.165 252.064L129.833 255.12ZM129.261 281.821L151.636 277.876L150.08 269.052L155.279 268.135L159.516 292.164L154.317 293.081L152.761 284.257L130.386 288.202L129.261 281.821Z" fill="#F8F8FA"/>
<g filter="url(#filter0_d_302_588)">
<path d="M314.228 28.3149C319.667 29.274 323.138 34.5281 323.779 40.0135C325.515 54.8747 336.899 67.5002 352.527 70.256C368.155 73.0116 383.17 65.0409 389.884 51.6696C392.363 46.7342 397.422 42.9843 402.86 43.9433L449.146 52.1047C454.585 53.0638 458.217 58.2504 457.258 63.6893L449.756 106.233C449.143 105.992 448.495 105.808 447.821 105.689C442.382 104.73 437.195 108.361 436.236 113.8C435.277 119.239 438.909 124.426 444.348 125.385C445.023 125.504 445.694 125.551 446.353 125.534L408.637 339.435C407.678 344.874 402.491 348.506 397.052 347.547L215.847 315.596C210.408 314.637 206.777 309.45 207.736 304.011L245.452 90.1098C246.066 90.3513 246.712 90.5363 247.387 90.6553C252.826 91.6143 258.013 87.9826 258.972 82.5437C259.931 77.1047 256.299 71.9181 250.86 70.9591C250.185 70.8402 249.515 70.792 248.856 70.809L256.357 28.2651C257.316 22.8261 262.503 19.1944 267.942 20.1535L314.228 28.3149ZM275.481 75.3005C270.042 74.3414 264.856 77.9731 263.897 83.4121C262.938 88.851 266.569 94.0376 272.008 94.9966C277.447 95.9555 282.634 92.3239 283.593 86.885C284.552 81.4462 280.92 76.2596 275.481 75.3005ZM300.1 79.6415C294.661 78.6825 289.475 82.3142 288.516 87.7531C287.557 93.192 291.189 98.3786 296.627 99.3377C302.066 100.296 307.253 96.6648 308.212 91.2261C309.171 85.7873 305.539 80.6007 300.1 79.6415ZM324.722 83.9829C319.283 83.0238 314.096 86.6555 313.137 92.0945C312.178 97.5333 315.81 102.72 321.249 103.679C326.687 104.638 331.874 101.006 332.833 95.5674C333.792 90.1287 330.16 84.9421 324.722 83.9829ZM349.34 88.3237C343.901 87.365 338.714 90.9966 337.755 96.4353C336.796 101.874 340.428 107.061 345.867 108.02C351.306 108.979 356.492 105.347 357.451 99.9083C358.41 94.4694 354.779 89.2828 349.34 88.3237ZM373.961 92.6651C368.522 91.7063 363.335 95.3379 362.376 100.777C361.417 106.216 365.049 111.402 370.488 112.361C375.927 113.32 381.114 109.689 382.073 104.25C383.032 98.8107 379.4 93.6242 373.961 92.6651ZM398.58 97.0062C393.141 96.0474 387.955 99.6791 386.996 105.118C386.037 110.557 389.668 115.743 395.107 116.702C400.546 117.661 405.733 114.03 406.692 108.591C407.651 103.152 404.019 97.9652 398.58 97.0062ZM423.201 101.348C417.762 100.389 412.576 104.02 411.617 109.459C410.658 114.898 414.29 120.085 419.728 121.044C425.167 122.003 430.354 118.371 431.313 112.932C432.272 107.493 428.64 102.307 423.201 101.348Z" fill="#FC2A75"/>
<path d="M424.886 132.107C430.325 133.066 433.957 138.253 432.998 143.692L397.053 347.547L392.129 346.679L427.77 144.548C428.521 140.287 424.721 136.056 419.282 135.096L267.622 108.355C262.183 107.396 257.165 110.072 256.413 114.333L220.772 316.464L215.848 315.596L251.793 111.741C252.752 106.302 257.939 102.67 263.378 103.629L424.886 132.107Z" fill="#F8F8FA"/>
<path d="M322.803 154.217L345.178 158.162L346.734 149.338L351.933 150.255L347.696 174.285L342.497 173.368L344.052 164.544L321.678 160.599L322.803 154.217ZM319.516 172.856L347.091 177.718L345.966 184.1L318.391 179.238L319.516 172.856ZM314.438 198.895C314.813 196.768 315.504 194.845 316.511 193.127C317.539 191.44 318.815 190.04 320.338 188.928C321.861 187.815 323.556 187.031 325.424 186.575C327.287 186.146 329.255 186.114 331.33 186.479C333.405 186.845 335.244 187.549 336.847 188.59C338.446 189.657 339.771 190.974 340.822 192.54C341.868 194.132 342.573 195.895 342.936 197.827C343.325 199.764 343.33 201.809 342.951 203.963C342.529 206.353 341.729 208.432 340.551 210.201C339.394 212.001 337.899 213.416 336.066 214.447L333.006 209.683C334.25 208.927 335.236 208.018 335.965 206.955C336.72 205.897 337.218 204.685 337.459 203.32C337.686 202.033 337.684 200.814 337.454 199.663C337.223 198.512 336.784 197.473 336.135 196.547C335.486 195.62 334.662 194.838 333.664 194.202C332.662 193.592 331.504 193.171 330.191 192.94C328.878 192.708 327.646 192.708 326.495 192.938C325.34 193.195 324.299 193.647 323.372 194.296C322.445 194.945 321.677 195.771 321.067 196.774C320.457 197.776 320.038 198.921 319.811 200.208C319.57 201.573 319.611 202.88 319.932 204.128C320.28 205.381 320.922 206.577 321.858 207.717L317.354 211.147C315.984 209.552 315.05 207.708 314.552 205.617C314.05 203.551 314.012 201.311 314.438 198.895ZM317.439 221.495L324.867 222.439L336.446 238.088L335.196 245.178L324.491 231.025L321.334 226.812L317.439 221.495ZM312.143 214.672L339.718 219.534L338.599 225.876L311.025 221.014L312.143 214.672ZM308.816 233.541L322.56 225.851L326.354 230.825L307.503 240.986L308.816 233.541ZM322.432 252.604L320.092 265.879L315.128 265.004L317.469 251.729L322.432 252.604ZM311.004 251.077L308.358 266.085L303.237 265.182L307.001 243.831L334.576 248.694L330.902 269.532L325.781 268.629L328.337 254.133L311.004 251.077ZM301.334 275.972L323.709 279.917L325.265 271.093L330.465 272.01L326.228 296.039L321.028 295.122L322.584 286.298L300.209 282.353L301.334 275.972Z" fill="#F8F8FA"/>
</g>
<defs>
<filter id="filter0_d_302_588" x="185.999" y="-1.58301" width="292.995" height="370.866" filterUnits="userSpaceOnUse" color-interpolation-filters="sRGB">
<feFlood flood-opacity="0" result="BackgroundImageFix"/>
<feColorMatrix in="SourceAlpha" type="matrix" values="0 0 0 0 0 0 0 0 0 0 0 0 0 0 0 0 0 0 127 0" result="hardAlpha"/>
<feOffset/>
<feGaussianBlur stdDeviation="10"/>
<feComposite in2="hardAlpha" operator="out"/>
<feColorMatrix type="matrix" values="0 0 0 0 0.117647 0 0 0 0 0.117647 0 0 0 0 0.117647 0 0 0 0.8 0"/>
<feBlend mode="normal" in2="BackgroundImageFix" result="effect1_dropShadow_302_588"/>
<feBlend mode="normal" in="SourceGraphic" in2="effect1_dropShadow_302_588" result="shape"/>
</filter>
</defs>
</svg>
