<svg width="25" height="25" viewBox="0 0 25 25" fill="none" xmlns="http://www.w3.org/2000/svg">
<g clip-path="url(#clip0_206_608)">
<path d="M21.875 0H3.125C2.2962 0 1.50134 0.32924 0.915291 0.915291C0.32924 1.50134 0 2.2962 0 3.125L0 21.875C0 22.7038 0.32924 23.4987 0.915291 24.0847C1.50134 24.6708 2.2962 25 3.125 25H21.875C22.7038 25 23.4987 24.6708 24.0847 24.0847C24.6708 23.4987 25 22.7038 25 21.875V3.125C25 2.2962 24.6708 1.50134 24.0847 0.915291C23.4987 0.32924 22.7038 0 21.875 0ZM1.5625 6.02656C1.5625 5.2875 2.2625 4.6875 3.125 4.6875H21.875C22.7375 4.6875 23.4375 5.2875 23.4375 6.02656V22.0984C23.4375 22.8375 22.7375 23.4375 21.875 23.4375H3.125C2.2625 23.4375 1.5625 22.8375 1.5625 22.0984V6.02656Z" fill="#1E1E1E"/>
<path d="M10.1562 10.9375C10.5707 10.9375 10.9681 10.7729 11.2611 10.4799C11.5541 10.1868 11.7188 9.7894 11.7188 9.375C11.7188 8.9606 11.5541 8.56317 11.2611 8.27015C10.9681 7.97712 10.5707 7.8125 10.1562 7.8125C9.74185 7.8125 9.34442 7.97712 9.0514 8.27015C8.75837 8.56317 8.59375 8.9606 8.59375 9.375C8.59375 9.7894 8.75837 10.1868 9.0514 10.4799C9.34442 10.7729 9.74185 10.9375 10.1562 10.9375ZM14.8438 10.9375C15.2582 10.9375 15.6556 10.7729 15.9486 10.4799C16.2416 10.1868 16.4062 9.7894 16.4062 9.375C16.4062 8.9606 16.2416 8.56317 15.9486 8.27015C15.6556 7.97712 15.2582 7.8125 14.8438 7.8125C14.4293 7.8125 14.0319 7.97712 13.7389 8.27015C13.4459 8.56317 13.2812 8.9606 13.2812 9.375C13.2812 9.7894 13.4459 10.1868 13.7389 10.4799C14.0319 10.7729 14.4293 10.9375 14.8438 10.9375ZM19.5312 10.9375C19.9457 10.9375 20.3431 10.7729 20.6361 10.4799C20.9291 10.1868 21.0938 9.7894 21.0938 9.375C21.0938 8.9606 20.9291 8.56317 20.6361 8.27015C20.3431 7.97712 19.9457 7.8125 19.5312 7.8125C19.1168 7.8125 18.7194 7.97712 18.4264 8.27015C18.1334 8.56317 17.9688 8.9606 17.9688 9.375C17.9688 9.7894 18.1334 10.1868 18.4264 10.4799C18.7194 10.7729 19.1168 10.9375 19.5312 10.9375ZM5.46875 15.625C5.88315 15.625 6.28058 15.4604 6.5736 15.1674C6.86663 14.8743 7.03125 14.4769 7.03125 14.0625C7.03125 13.6481 6.86663 13.2507 6.5736 12.9576C6.28058 12.6646 5.88315 12.5 5.46875 12.5C5.05435 12.5 4.65692 12.6646 4.3639 12.9576C4.07087 13.2507 3.90625 13.6481 3.90625 14.0625C3.90625 14.4769 4.07087 14.8743 4.3639 15.1674C4.65692 15.4604 5.05435 15.625 5.46875 15.625ZM10.1562 15.625C10.5707 15.625 10.9681 15.4604 11.2611 15.1674C11.5541 14.8743 11.7188 14.4769 11.7188 14.0625C11.7188 13.6481 11.5541 13.2507 11.2611 12.9576C10.9681 12.6646 10.5707 12.5 10.1562 12.5C9.74185 12.5 9.34442 12.6646 9.0514 12.9576C8.75837 13.2507 8.59375 13.6481 8.59375 14.0625C8.59375 14.4769 8.75837 14.8743 9.0514 15.1674C9.34442 15.4604 9.74185 15.625 10.1562 15.625ZM14.8438 15.625C15.2582 15.625 15.6556 15.4604 15.9486 15.1674C16.2416 14.8743 16.4062 14.4769 16.4062 14.0625C16.4062 13.6481 16.2416 13.2507 15.9486 12.9576C15.6556 12.6646 15.2582 12.5 14.8438 12.5C14.4293 12.5 14.0319 12.6646 13.7389 12.9576C13.4459 13.2507 13.2812 13.6481 13.2812 14.0625C13.2812 14.4769 13.4459 14.8743 13.7389 15.1674C14.0319 15.4604 14.4293 15.625 14.8438 15.625ZM19.5312 15.625C19.9457 15.625 20.3431 15.4604 20.6361 15.1674C20.9291 14.8743 21.0938 14.4769 21.0938 14.0625C21.0938 13.6481 20.9291 13.2507 20.6361 12.9576C20.3431 12.6646 19.9457 12.5 19.5312 12.5C19.1168 12.5 18.7194 12.6646 18.4264 12.9576C18.1334 13.2507 17.9688 13.6481 17.9688 14.0625C17.9688 14.4769 18.1334 14.8743 18.4264 15.1674C18.7194 15.4604 19.1168 15.625 19.5312 15.625ZM5.46875 20.3125C5.88315 20.3125 6.28058 20.1479 6.5736 19.8549C6.86663 19.5618 7.03125 19.1644 7.03125 18.75C7.03125 18.3356 6.86663 17.9382 6.5736 17.6451C6.28058 17.3521 5.88315 17.1875 5.46875 17.1875C5.05435 17.1875 4.65692 17.3521 4.3639 17.6451C4.07087 17.9382 3.90625 18.3356 3.90625 18.75C3.90625 19.1644 4.07087 19.5618 4.3639 19.8549C4.65692 20.1479 5.05435 20.3125 5.46875 20.3125ZM10.1562 20.3125C10.5707 20.3125 10.9681 20.1479 11.2611 19.8549C11.5541 19.5618 11.7188 19.1644 11.7188 18.75C11.7188 18.3356 11.5541 17.9382 11.2611 17.6451C10.9681 17.3521 10.5707 17.1875 10.1562 17.1875C9.74185 17.1875 9.34442 17.3521 9.0514 17.6451C8.75837 17.9382 8.59375 18.3356 8.59375 18.75C8.59375 19.1644 8.75837 19.5618 9.0514 19.8549C9.34442 20.1479 9.74185 20.3125 10.1562 20.3125ZM14.8438 20.3125C15.2582 20.3125 15.6556 20.1479 15.9486 19.8549C16.2416 19.5618 16.4062 19.1644 16.4062 18.75C16.4062 18.3356 16.2416 17.9382 15.9486 17.6451C15.6556 17.3521 15.2582 17.1875 14.8438 17.1875C14.4293 17.1875 14.0319 17.3521 13.7389 17.6451C13.4459 17.9382 13.2812 18.3356 13.2812 18.75C13.2812 19.1644 13.4459 19.5618 13.7389 19.8549C14.0319 20.1479 14.4293 20.3125 14.8438 20.3125Z" fill="#1E1E1E"/>
</g>
<defs>
<clipPath id="clip0_206_608">
<rect width="25" height="25" fill="white"/>
</clipPath>
</defs>
</svg>
